<?xml version="1.0" encoding="UTF-8"?>
<!DOCTYPE svg PUBLIC "-//W3C//DTD SVG 1.1//EN" "http://www.w3.org/Graphics/SVG/1.1/DTD/svg11.dtd">
<!-- Creator: CorelDRAW 2020 (64-Bit) -->
<svg xmlns="http://www.w3.org/2000/svg" xml:space="preserve" width="1796px" height="1232px" version="1.1" style="shape-rendering:geometricPrecision; text-rendering:geometricPrecision; image-rendering:optimizeQuality; fill-rule:evenodd; clip-rule:evenodd"
viewBox="0 0 257.31 176.54"
 xmlns:xlink="http://www.w3.org/1999/xlink"
 xmlns:xodm="http://www.corel.com/coreldraw/odm/2003">
 <defs>
  <style type="text/css">
   <![CDATA[
    .str1 {stroke:#332C2B;stroke-width:0.34;stroke-miterlimit:22.9256}
    .str0 {stroke:black;stroke-width:0.34;stroke-miterlimit:22.9256}
    .str2 {stroke:black;stroke-width:0.17;stroke-miterlimit:22.9256}
    .fil0 {fill:none}
    .fil3 {fill:#B3B3B3}
    .fil1 {fill:#E6E6E6}
    .fil4 {fill:yellow}
    .fil2 {fill:black;fill-rule:nonzero}
   ]]>
  </style>
 </defs>
 <g id="图层_x0020_1">
  <metadata id="CorelCorpID_0Corel-Layer"/>
  <rect class="fil0 str0" x="0.17" y="0.17" width="256.97" height="176.2" rx="2.69" ry="2.84"/>
  <path class="fil1 str1" d="M0.17 15.84l256.97 0 0 -12.98c0,-1.48 -1.21,-2.69 -2.69,-2.69l-251.59 0c-1.48,0 -2.69,1.21 -2.69,2.69l0 12.98z"/>
  <polygon class="fil2" points="27.07,12.32 25.06,3.78 26.84,3.78 28.11,9.65 29.67,3.78 31.72,3.78 33.22,9.75 34.52,3.78 36.26,3.78 34.2,12.32 32.35,12.32 30.66,5.93 28.96,12.32 "/>
  <path id="1" class="fil2" d="M40.52 10.37l1.63 0.27c-0.21,0.6 -0.54,1.06 -0.99,1.37 -0.46,0.31 -1.02,0.47 -1.7,0.47 -1.08,0 -1.88,-0.35 -2.39,-1.06 -0.41,-0.56 -0.61,-1.27 -0.61,-2.14 0,-1.02 0.26,-1.83 0.8,-2.41 0.54,-0.58 1.21,-0.87 2.03,-0.87 0.92,0 1.65,0.3 2.18,0.91 0.53,0.61 0.79,1.54 0.76,2.8l-4.09 0c0.01,0.49 0.14,0.86 0.4,1.13 0.25,0.27 0.56,0.41 0.93,0.41 0.26,0 0.48,-0.07 0.65,-0.21 0.17,-0.14 0.31,-0.36 0.4,-0.67zm0.09 -1.66c-0.01,-0.48 -0.13,-0.84 -0.37,-1.09 -0.23,-0.25 -0.51,-0.37 -0.85,-0.37 -0.35,0 -0.65,0.13 -0.88,0.39 -0.23,0.26 -0.34,0.62 -0.34,1.07l2.44 0z"/>
  <path id="2" class="fil2" d="M43.5 12.32l0 -8.54 1.64 0 0 3.08c0.5,-0.57 1.1,-0.86 1.79,-0.86 0.76,0 1.38,0.27 1.87,0.82 0.5,0.54 0.74,1.33 0.74,2.35 0,1.06 -0.25,1.88 -0.75,2.45 -0.51,0.57 -1.12,0.86 -1.84,0.86 -0.35,0 -0.7,-0.09 -1.04,-0.27 -0.35,-0.19 -0.64,-0.45 -0.89,-0.79l0 0.9 -1.52 0zm1.61 -3.21c0,0.64 0.1,1.12 0.31,1.42 0.28,0.44 0.66,0.66 1.13,0.66 0.36,0 0.67,-0.15 0.93,-0.47 0.25,-0.31 0.38,-0.8 0.38,-1.46 0,-0.71 -0.13,-1.22 -0.39,-1.54 -0.25,-0.31 -0.58,-0.47 -0.98,-0.47 -0.4,0 -0.72,0.15 -0.98,0.46 -0.27,0.31 -0.4,0.77 -0.4,1.4z"/>
  <path id="3" class="fil2" d="M58.58 12.32l-1.87 0 -0.73 -1.94 -3.43 0 -0.71 1.94 -1.83 0 3.31 -8.54 1.83 0 3.43 8.54zm-3.17 -3.39l-1.18 -3.16 -1.16 3.16 2.34 0z"/>
  <path id="4" class="fil2" d="M61.05 12.32l-1.63 0 0 -6.19 1.51 0 0 0.88c0.26,-0.42 0.5,-0.69 0.71,-0.82 0.2,-0.13 0.44,-0.19 0.71,-0.19 0.37,0 0.73,0.1 1.08,0.31l-0.51 1.42c-0.28,-0.17 -0.53,-0.26 -0.77,-0.26 -0.23,0 -0.43,0.06 -0.59,0.18 -0.16,0.13 -0.28,0.36 -0.37,0.69 -0.09,0.33 -0.14,1.02 -0.14,2.07l0 1.91z"/>
  <path id="5" class="fil2" d="M71.84 12.32l-1.86 0 -0.74 -1.94 -3.43 0 -0.71 1.94 -1.83 0 3.32 -8.54 1.83 0 3.42 8.54zm-3.16 -3.39l-1.19 -3.16 -1.15 3.16 2.34 0z"/>
  <path id="6" class="fil2" d="M74.32 12.32l-1.64 0 0 -6.19 1.52 0 0 0.88c0.26,-0.42 0.49,-0.69 0.7,-0.82 0.21,-0.13 0.45,-0.19 0.71,-0.19 0.38,0 0.74,0.1 1.08,0.31l-0.5 1.42c-0.28,-0.17 -0.54,-0.26 -0.77,-0.26 -0.23,0 -0.43,0.06 -0.59,0.18 -0.16,0.13 -0.28,0.36 -0.37,0.69 -0.1,0.33 -0.14,1.02 -0.14,2.07l0 1.91z"/>
  <rect class="fil0 str0" x="0.17" y="20.56" width="256.97" height="137.21"/>
  <g id="_2967562894560">
   <rect class="fil0 str0" x="27.83" y="96.59" width="44.99" height="37.76" rx="1.18" ry="0.41"/>
   <rect class="fil3" x="35.51" y="119.06" width="5.19" height="1.79"/>
   <rect class="fil3" x="35.51" y="122.37" width="13.57" height="1.79"/>
   <rect class="fil3" x="35.51" y="125.28" width="11.08" height="1.79"/>
   <rect class="fil3" x="59.18" y="125.28" width="6.79" height="1.79"/>
   <rect class="fil3" x="49.63" y="122.37" width="15.09" height="1.79"/>
   <rect class="fil3" x="41.28" y="119.06" width="13.11" height="1.79"/>
   <rect class="fil3" x="54.89" y="119.06" width="11.7" height="1.79"/>
   <rect class="fil3" x="47.25" y="125.28" width="11.43" height="1.79"/>
   <rect class="fil3" x="35.51" y="105.57" width="5.19" height="1.79"/>
   <rect class="fil3" x="35.51" y="108.87" width="13.57" height="1.79"/>
   <rect class="fil3" x="35.51" y="111.78" width="11.08" height="1.79"/>
   <rect class="fil3" x="59.18" y="111.78" width="6.79" height="1.79"/>
   <rect class="fil3" x="49.63" y="108.87" width="15.09" height="1.79"/>
   <rect class="fil3" x="41.28" y="105.57" width="13.11" height="1.79"/>
   <rect class="fil3" x="54.89" y="105.57" width="11.7" height="1.79"/>
   <rect class="fil3" x="47.25" y="111.78" width="11.43" height="1.79"/>
  </g>
  <g id="_2967562896048">
   <rect class="fil0 str0" x="111.28" y="41.53" width="35.09" height="9.18" rx="3.04" ry="1"/>
   <rect class="fil3" x="118.92" y="44.94" width="2.87" height="2.37"/>
   <rect class="fil3" x="122.43" y="44.94" width="2.87" height="2.37"/>
   <rect class="fil3" x="125.95" y="44.94" width="2.87" height="2.37"/>
   <rect class="fil3" x="129.46" y="44.94" width="2.87" height="2.37"/>
   <rect class="fil3" x="132.97" y="44.94" width="2.87" height="2.37"/>
   <rect class="fil3" x="136.49" y="44.94" width="2.87" height="2.37"/>
  </g>
  <g id="_2967562896336">
   <rect class="fil0 str0" x="69.13" y="41.53" width="35.09" height="9.18" rx="3.04" ry="1"/>
   <rect class="fil3" x="76.77" y="44.94" width="2.87" height="2.37"/>
   <rect class="fil3" x="80.29" y="44.94" width="2.87" height="2.37"/>
   <rect class="fil3" x="83.8" y="44.94" width="2.87" height="2.37"/>
   <rect class="fil3" x="87.32" y="44.94" width="2.87" height="2.37"/>
   <rect class="fil3" x="90.83" y="44.94" width="2.87" height="2.37"/>
   <rect class="fil3" x="94.34" y="44.94" width="2.87" height="2.37"/>
  </g>
  <g id="_2967562893792">
   <rect class="fil0 str0" x="153.42" y="41.53" width="35.09" height="9.18" rx="3.04" ry="1"/>
   <rect class="fil3" x="161.06" y="44.94" width="2.87" height="2.37"/>
   <rect class="fil3" x="164.58" y="44.94" width="2.87" height="2.37"/>
   <rect class="fil3" x="168.09" y="44.94" width="2.87" height="2.37"/>
   <rect class="fil3" x="171.61" y="44.94" width="2.87" height="2.37"/>
   <rect class="fil3" x="175.12" y="44.94" width="2.87" height="2.37"/>
   <rect class="fil3" x="178.63" y="44.94" width="2.87" height="2.37"/>
  </g>
  <g id="_2967562894512">
   <rect class="fil0 str0" x="89.72" y="55.9" width="35.09" height="9.18" rx="3.04" ry="1"/>
   <rect class="fil3" x="97.37" y="59.3" width="2.87" height="2.37"/>
   <rect class="fil3" x="100.88" y="59.3" width="2.87" height="2.37"/>
   <rect class="fil3" x="104.39" y="59.3" width="2.87" height="2.37"/>
   <rect class="fil3" x="107.91" y="59.3" width="2.87" height="2.37"/>
   <rect class="fil3" x="111.42" y="59.3" width="2.87" height="2.37"/>
   <rect class="fil3" x="114.94" y="59.3" width="2.87" height="2.37"/>
  </g>
  <g id="_2967562893552">
   <rect class="fil0 str0" x="132.83" y="55.9" width="35.09" height="9.18" rx="3.04" ry="1"/>
   <rect class="fil3" x="140.47" y="59.3" width="2.87" height="2.37"/>
   <rect class="fil3" x="143.98" y="59.3" width="2.87" height="2.37"/>
   <rect class="fil3" x="147.5" y="59.3" width="2.87" height="2.37"/>
   <rect class="fil3" x="151.01" y="59.3" width="2.87" height="2.37"/>
   <rect class="fil3" x="154.53" y="59.3" width="2.87" height="2.37"/>
   <rect class="fil3" x="158.04" y="59.3" width="2.87" height="2.37"/>
  </g>
  <g id="_2967562891536">
   <rect class="fil0 str0" x="106.32" y="96.59" width="44.99" height="37.76" rx="1.18" ry="0.41"/>
   <rect class="fil3" x="114.01" y="119.06" width="5.19" height="1.79"/>
   <rect class="fil3" x="114.01" y="122.37" width="13.57" height="1.79"/>
   <rect class="fil3" x="114.01" y="125.28" width="11.08" height="1.79"/>
   <rect class="fil3" x="137.68" y="125.28" width="6.79" height="1.79"/>
   <rect class="fil3" x="128.13" y="122.37" width="15.09" height="1.79"/>
   <rect class="fil3" x="119.78" y="119.06" width="13.11" height="1.79"/>
   <rect class="fil3" x="133.39" y="119.06" width="11.7" height="1.79"/>
   <rect class="fil3" x="125.75" y="125.28" width="11.43" height="1.79"/>
   <rect class="fil3" x="114.01" y="105.57" width="5.19" height="1.79"/>
   <rect class="fil3" x="114.01" y="108.87" width="13.57" height="1.79"/>
   <rect class="fil3" x="114.01" y="111.78" width="11.08" height="1.79"/>
   <rect class="fil3" x="137.68" y="111.78" width="6.79" height="1.79"/>
   <rect class="fil3" x="128.13" y="108.87" width="15.09" height="1.79"/>
   <rect class="fil3" x="119.78" y="105.57" width="13.11" height="1.79"/>
   <rect class="fil3" x="133.39" y="105.57" width="11.7" height="1.79"/>
   <rect class="fil3" x="125.75" y="111.78" width="11.43" height="1.79"/>
  </g>
  <g id="_2967562892880">
   <rect class="fil0 str0" x="184.82" y="96.59" width="44.99" height="37.76" rx="1.18" ry="0.41"/>
   <rect class="fil3" x="192.5" y="119.06" width="5.19" height="1.79"/>
   <rect class="fil3" x="192.5" y="122.37" width="13.57" height="1.79"/>
   <rect class="fil3" x="192.5" y="125.28" width="11.08" height="1.79"/>
   <rect class="fil3" x="216.18" y="125.28" width="6.79" height="1.79"/>
   <rect class="fil3" x="206.62" y="122.37" width="15.09" height="1.79"/>
   <rect class="fil3" x="198.28" y="119.06" width="13.11" height="1.79"/>
   <rect class="fil3" x="211.89" y="119.06" width="11.7" height="1.79"/>
   <rect class="fil3" x="204.24" y="125.28" width="11.43" height="1.79"/>
   <rect class="fil3" x="192.5" y="105.57" width="5.19" height="1.79"/>
   <rect class="fil3" x="192.5" y="108.87" width="13.57" height="1.79"/>
   <rect class="fil3" x="192.5" y="111.78" width="11.08" height="1.79"/>
   <rect class="fil3" x="216.18" y="111.78" width="6.79" height="1.79"/>
   <rect class="fil3" x="206.62" y="108.87" width="15.09" height="1.79"/>
   <rect class="fil3" x="198.28" y="105.57" width="13.11" height="1.79"/>
   <rect class="fil3" x="211.89" y="105.57" width="11.7" height="1.79"/>
   <rect class="fil3" x="204.24" y="111.78" width="11.43" height="1.79"/>
  </g>
  <polygon class="fil4 str2" points="173.07,102.32 175.46,101.5 168.92,93.13 168.92,103.75 171.31,102.93 172.92,107.6 174.68,106.99 "/>
 </g>
</svg>
