<?xml version="1.0" encoding="UTF-8"?>
<!DOCTYPE svg PUBLIC "-//W3C//DTD SVG 1.1//EN" "http://www.w3.org/Graphics/SVG/1.1/DTD/svg11.dtd">
<!-- Creator: CorelDRAW 2020 (64-Bit) -->
<svg xmlns="http://www.w3.org/2000/svg" xml:space="preserve" width="1796px" height="1232px" version="1.1" style="shape-rendering:geometricPrecision; text-rendering:geometricPrecision; image-rendering:optimizeQuality; fill-rule:evenodd; clip-rule:evenodd"
viewBox="0 0 257.82 176.89"
 xmlns:xlink="http://www.w3.org/1999/xlink"
 xmlns:xodm="http://www.corel.com/coreldraw/odm/2003">
 <defs>
  <style type="text/css">
   <![CDATA[
    .str1 {stroke:#332C2B;stroke-width:0.34;stroke-miterlimit:22.9256}
    .str0 {stroke:black;stroke-width:0.34;stroke-miterlimit:22.9256}
    .str2 {stroke:black;stroke-width:0.17;stroke-miterlimit:22.9256}
    .fil0 {fill:none}
    .fil3 {fill:#B3B3B3}
    .fil1 {fill:#E6E6E6}
    .fil4 {fill:yellow}
    .fil2 {fill:black;fill-rule:nonzero}
   ]]>
  </style>
 </defs>
 <g id="图层_x0020_1">
  <metadata id="CorelCorpID_0Corel-Layer"/>
  <rect class="fil0 str0" x="0.17" y="0.17" width="257.48" height="176.56" rx="2.69" ry="2.85"/>
  <path class="fil1 str1" d="M0.17 15.87l257.48 0 0 -13.01c0,-1.48 -1.21,-2.69 -2.69,-2.69l-252.1 0c-1.48,0 -2.69,1.21 -2.69,2.69l0 13.01z"/>
  <polygon class="fil2" points="27.12,12.35 25.11,3.78 26.89,3.78 28.16,9.67 29.73,3.78 31.79,3.78 33.28,9.77 34.59,3.78 36.33,3.78 34.26,12.35 32.41,12.35 30.72,5.95 29.02,12.35 "/>
  <path id="1" class="fil2" d="M40.6 10.39l1.63 0.27c-0.2,0.6 -0.54,1.06 -0.99,1.37 -0.45,0.32 -1.02,0.47 -1.7,0.47 -1.08,0 -1.88,-0.35 -2.4,-1.05 -0.41,-0.57 -0.61,-1.28 -0.61,-2.15 0,-1.03 0.27,-1.83 0.8,-2.42 0.54,-0.58 1.22,-0.87 2.04,-0.87 0.92,0 1.65,0.3 2.19,0.91 0.53,0.61 0.78,1.55 0.76,2.81l-4.1 0c0.01,0.49 0.14,0.86 0.39,1.14 0.25,0.27 0.57,0.4 0.94,0.4 0.26,0 0.48,-0.07 0.65,-0.21 0.17,-0.14 0.31,-0.36 0.4,-0.67zm0.09 -1.67c-0.01,-0.47 -0.13,-0.83 -0.36,-1.08 -0.24,-0.25 -0.52,-0.37 -0.86,-0.37 -0.35,0 -0.65,0.13 -0.88,0.39 -0.23,0.26 -0.35,0.62 -0.34,1.06l2.44 0z"/>
  <path id="2" class="fil2" d="M43.59 12.35l0 -8.57 1.64 0 0 3.09c0.5,-0.57 1.1,-0.86 1.8,-0.86 0.75,0 1.38,0.27 1.87,0.82 0.49,0.55 0.74,1.34 0.74,2.36 0,1.06 -0.25,1.88 -0.75,2.46 -0.51,0.57 -1.12,0.85 -1.84,0.85 -0.36,0 -0.71,-0.09 -1.05,-0.27 -0.35,-0.18 -0.64,-0.45 -0.89,-0.79l0 0.91 -1.52 0zm1.61 -3.22c0,0.64 0.11,1.12 0.31,1.42 0.28,0.44 0.66,0.66 1.13,0.66 0.37,0 0.67,-0.15 0.93,-0.46 0.26,-0.31 0.38,-0.81 0.38,-1.47 0,-0.71 -0.12,-1.23 -0.38,-1.54 -0.26,-0.32 -0.59,-0.47 -0.99,-0.47 -0.4,0 -0.72,0.15 -0.98,0.46 -0.26,0.3 -0.4,0.77 -0.4,1.4z"/>
  <path id="3" class="fil2" d="M58.69 12.35l-1.86 0 -0.74 -1.95 -3.44 0 -0.71 1.95 -1.83 0 3.32 -8.57 1.83 0 3.43 8.57zm-3.17 -3.4l-1.19 -3.17 -1.15 3.17 2.34 0z"/>
  <path id="4" class="fil2" d="M61.17 12.35l-1.64 0 0 -6.21 1.52 0 0 0.88c0.26,-0.41 0.5,-0.69 0.71,-0.82 0.21,-0.13 0.45,-0.19 0.71,-0.19 0.38,0 0.74,0.1 1.08,0.31l-0.51 1.43c-0.27,-0.18 -0.53,-0.27 -0.77,-0.27 -0.23,0 -0.42,0.06 -0.58,0.19 -0.16,0.13 -0.29,0.35 -0.38,0.69 -0.09,0.33 -0.14,1.02 -0.14,2.08l0 1.91z"/>
  <path id="5" class="fil2" d="M71.99 12.35l-1.87 0 -0.74 -1.95 -3.43 0 -0.72 1.95 -1.83 0 3.33 -8.57 1.83 0 3.43 8.57zm-3.17 -3.4l-1.19 -3.17 -1.16 3.17 2.35 0z"/>
  <path id="6" class="fil2" d="M74.47 12.35l-1.64 0 0 -6.21 1.52 0 0 0.88c0.26,-0.41 0.49,-0.69 0.7,-0.82 0.21,-0.13 0.45,-0.19 0.71,-0.19 0.38,0 0.74,0.1 1.09,0.31l-0.51 1.43c-0.28,-0.18 -0.54,-0.27 -0.77,-0.27 -0.23,0 -0.43,0.06 -0.59,0.19 -0.16,0.13 -0.28,0.35 -0.38,0.69 -0.09,0.33 -0.13,1.02 -0.13,2.08l0 1.91z"/>
  <rect class="fil0 str0" x="0.17" y="20.61" width="257.48" height="137.48"/>
  <g id="_2967562910784">
   <rect class="fil0 str0" x="27.88" y="96.78" width="45.08" height="37.84" rx="1.18" ry="0.41"/>
   <rect class="fil3" x="35.58" y="119.3" width="5.2" height="1.79"/>
   <rect class="fil3" x="35.58" y="122.61" width="13.6" height="1.79"/>
   <rect class="fil3" x="35.58" y="125.53" width="11.1" height="1.79"/>
   <rect class="fil3" x="59.3" y="125.53" width="6.8" height="1.79"/>
   <rect class="fil3" x="49.73" y="122.61" width="15.12" height="1.79"/>
   <rect class="fil3" x="41.36" y="119.3" width="13.13" height="1.79"/>
   <rect class="fil3" x="55" y="119.3" width="11.72" height="1.79"/>
   <rect class="fil3" x="47.34" y="125.53" width="11.45" height="1.79"/>
   <rect class="fil3" x="35.58" y="105.78" width="5.2" height="1.79"/>
   <rect class="fil3" x="35.58" y="109.09" width="13.6" height="1.79"/>
   <rect class="fil3" x="35.58" y="112" width="11.1" height="1.79"/>
   <rect class="fil3" x="59.3" y="112" width="6.8" height="1.79"/>
   <rect class="fil3" x="49.73" y="109.09" width="15.12" height="1.79"/>
   <rect class="fil3" x="41.36" y="105.78" width="13.13" height="1.79"/>
   <rect class="fil3" x="55" y="105.78" width="11.72" height="1.79"/>
   <rect class="fil3" x="47.34" y="112" width="11.45" height="1.79"/>
  </g>
  <g id="_2967562910400">
   <rect class="fil0 str0" x="111.5" y="41.62" width="35.16" height="9.2" rx="3.04" ry="1"/>
   <rect class="fil3" x="119.16" y="45.03" width="2.88" height="2.37"/>
   <rect class="fil3" x="122.68" y="45.03" width="2.88" height="2.37"/>
   <rect class="fil3" x="126.2" y="45.03" width="2.88" height="2.37"/>
   <rect class="fil3" x="129.72" y="45.03" width="2.88" height="2.37"/>
   <rect class="fil3" x="133.24" y="45.03" width="2.88" height="2.37"/>
   <rect class="fil3" x="136.76" y="45.03" width="2.88" height="2.37"/>
  </g>
  <g id="_2967562909056">
   <rect class="fil0 str0" x="69.27" y="41.62" width="35.16" height="9.2" rx="3.04" ry="1"/>
   <rect class="fil3" x="76.93" y="45.03" width="2.88" height="2.37"/>
   <rect class="fil3" x="80.45" y="45.03" width="2.88" height="2.37"/>
   <rect class="fil3" x="83.97" y="45.03" width="2.88" height="2.37"/>
   <rect class="fil3" x="87.49" y="45.03" width="2.88" height="2.37"/>
   <rect class="fil3" x="91.01" y="45.03" width="2.88" height="2.37"/>
   <rect class="fil3" x="94.53" y="45.03" width="2.88" height="2.37"/>
  </g>
  <g id="_2967562909728">
   <rect class="fil0 str0" x="153.73" y="41.62" width="35.16" height="9.2" rx="3.04" ry="1"/>
   <rect class="fil3" x="161.38" y="45.03" width="2.88" height="2.37"/>
   <rect class="fil3" x="164.91" y="45.03" width="2.88" height="2.37"/>
   <rect class="fil3" x="168.43" y="45.03" width="2.88" height="2.37"/>
   <rect class="fil3" x="171.95" y="45.03" width="2.88" height="2.37"/>
   <rect class="fil3" x="175.47" y="45.03" width="2.88" height="2.37"/>
   <rect class="fil3" x="178.99" y="45.03" width="2.88" height="2.37"/>
  </g>
  <g id="_2967562907376">
   <rect class="fil0 str0" x="89.9" y="56.01" width="35.16" height="9.2" rx="3.04" ry="1"/>
   <rect class="fil3" x="97.56" y="59.42" width="2.88" height="2.37"/>
   <rect class="fil3" x="101.08" y="59.42" width="2.88" height="2.37"/>
   <rect class="fil3" x="104.6" y="59.42" width="2.88" height="2.37"/>
   <rect class="fil3" x="108.12" y="59.42" width="2.88" height="2.37"/>
   <rect class="fil3" x="111.65" y="59.42" width="2.88" height="2.37"/>
   <rect class="fil3" x="115.17" y="59.42" width="2.88" height="2.37"/>
  </g>
  <g id="_2967562906464">
   <rect class="fil0 str0" x="133.09" y="56.01" width="35.16" height="9.2" rx="3.04" ry="1"/>
   <rect class="fil3" x="140.75" y="59.42" width="2.88" height="2.37"/>
   <rect class="fil3" x="144.27" y="59.42" width="2.88" height="2.37"/>
   <rect class="fil3" x="147.79" y="59.42" width="2.88" height="2.37"/>
   <rect class="fil3" x="151.31" y="59.42" width="2.88" height="2.37"/>
   <rect class="fil3" x="154.84" y="59.42" width="2.88" height="2.37"/>
   <rect class="fil3" x="158.36" y="59.42" width="2.88" height="2.37"/>
  </g>
  <g id="_2967562907472">
   <rect class="fil0 str0" x="106.54" y="96.78" width="45.08" height="37.84" rx="1.18" ry="0.41"/>
   <rect class="fil3" x="114.23" y="119.3" width="5.2" height="1.79"/>
   <rect class="fil3" x="114.23" y="122.61" width="13.6" height="1.79"/>
   <rect class="fil3" x="114.23" y="125.53" width="11.1" height="1.79"/>
   <rect class="fil3" x="137.96" y="125.53" width="6.8" height="1.79"/>
   <rect class="fil3" x="128.38" y="122.61" width="15.12" height="1.79"/>
   <rect class="fil3" x="120.02" y="119.3" width="13.13" height="1.79"/>
   <rect class="fil3" x="133.66" y="119.3" width="11.72" height="1.79"/>
   <rect class="fil3" x="126" y="125.53" width="11.45" height="1.79"/>
   <rect class="fil3" x="114.23" y="105.78" width="5.2" height="1.79"/>
   <rect class="fil3" x="114.23" y="109.09" width="13.6" height="1.79"/>
   <rect class="fil3" x="114.23" y="112" width="11.1" height="1.79"/>
   <rect class="fil3" x="137.96" y="112" width="6.8" height="1.79"/>
   <rect class="fil3" x="128.38" y="109.09" width="15.12" height="1.79"/>
   <rect class="fil3" x="120.02" y="105.78" width="13.13" height="1.79"/>
   <rect class="fil3" x="133.66" y="105.78" width="11.72" height="1.79"/>
   <rect class="fil3" x="126" y="112" width="11.45" height="1.79"/>
  </g>
  <g id="_2967562904064">
   <rect class="fil0 str0" x="185.19" y="96.78" width="45.08" height="37.84" rx="1.18" ry="0.41"/>
   <rect class="fil3" x="192.89" y="119.3" width="5.2" height="1.79"/>
   <rect class="fil3" x="192.89" y="122.61" width="13.6" height="1.79"/>
   <rect class="fil3" x="192.89" y="125.53" width="11.1" height="1.79"/>
   <rect class="fil3" x="216.61" y="125.53" width="6.8" height="1.79"/>
   <rect class="fil3" x="207.04" y="122.61" width="15.12" height="1.79"/>
   <rect class="fil3" x="198.67" y="119.3" width="13.13" height="1.79"/>
   <rect class="fil3" x="212.31" y="119.3" width="11.72" height="1.79"/>
   <rect class="fil3" x="204.65" y="125.53" width="11.45" height="1.79"/>
   <rect class="fil3" x="192.89" y="105.78" width="5.2" height="1.79"/>
   <rect class="fil3" x="192.89" y="109.09" width="13.6" height="1.79"/>
   <rect class="fil3" x="192.89" y="112" width="11.1" height="1.79"/>
   <rect class="fil3" x="216.61" y="112" width="6.8" height="1.79"/>
   <rect class="fil3" x="207.04" y="109.09" width="15.12" height="1.79"/>
   <rect class="fil3" x="198.67" y="105.78" width="13.13" height="1.79"/>
   <rect class="fil3" x="212.31" y="105.78" width="11.72" height="1.79"/>
   <rect class="fil3" x="204.65" y="112" width="11.45" height="1.79"/>
  </g>
  <polygon class="fil4 str2" points="180.27,56.04 182.66,55.21 176.11,46.82 176.11,57.47 178.5,56.64 180.11,61.32 181.88,60.71 "/>
 </g>
</svg>
