<?xml version="1.0" encoding="UTF-8"?>
<!DOCTYPE svg PUBLIC "-//W3C//DTD SVG 1.1//EN" "http://www.w3.org/Graphics/SVG/1.1/DTD/svg11.dtd">
<!-- Creator: CorelDRAW 2020 (64-Bit) -->
<svg xmlns="http://www.w3.org/2000/svg" xml:space="preserve" width="1796px" height="1232px" version="1.1" style="shape-rendering:geometricPrecision; text-rendering:geometricPrecision; image-rendering:optimizeQuality; fill-rule:evenodd; clip-rule:evenodd"
viewBox="0 0 257.45 176.64"
 xmlns:xlink="http://www.w3.org/1999/xlink"
 xmlns:xodm="http://www.corel.com/coreldraw/odm/2003">
 <defs>
  <style type="text/css">
   <![CDATA[
    .str1 {stroke:#332C2B;stroke-width:0.34;stroke-miterlimit:22.9256}
    .str0 {stroke:black;stroke-width:0.34;stroke-miterlimit:22.9256}
    .str2 {stroke:black;stroke-width:0.17;stroke-miterlimit:22.9256}
    .fil0 {fill:none}
    .fil3 {fill:#B3B3B3}
    .fil1 {fill:#E6E6E6}
    .fil5 {fill:yellow}
    .fil4 {fill:white}
    .fil2 {fill:black;fill-rule:nonzero}
   ]]>
  </style>
 </defs>
 <g id="图层_x0020_1">
  <metadata id="CorelCorpID_0Corel-Layer"/>
  <rect class="fil0 str0" x="0.17" y="0.17" width="257.11" height="176.3" rx="2.69" ry="2.84"/>
  <path class="fil1 str1" d="M0.17 15.85l257.11 0 0 -12.99c0,-1.48 -1.21,-2.69 -2.69,-2.69l-251.73 0c-1.48,0 -2.69,1.21 -2.69,2.69l0 12.99z"/>
  <polygon class="fil2" points="27.08,12.33 25.07,3.78 26.85,3.78 28.12,9.65 29.68,3.78 31.74,3.78 33.24,9.75 34.54,3.78 36.28,3.78 34.22,12.33 32.37,12.33 30.68,5.94 28.98,12.33 "/>
  <path id="1" class="fil2" d="M40.54 10.37l1.63 0.28c-0.2,0.6 -0.54,1.05 -0.99,1.37 -0.45,0.31 -1.02,0.47 -1.7,0.47 -1.08,0 -1.87,-0.36 -2.39,-1.06 -0.41,-0.57 -0.61,-1.28 -0.61,-2.14 0,-1.03 0.27,-1.83 0.8,-2.42 0.54,-0.58 1.22,-0.87 2.04,-0.87 0.92,0 1.64,0.31 2.18,0.91 0.53,0.61 0.78,1.55 0.76,2.81l-4.1 0c0.01,0.48 0.14,0.86 0.4,1.13 0.25,0.27 0.56,0.41 0.94,0.41 0.25,0 0.47,-0.07 0.64,-0.21 0.18,-0.14 0.31,-0.37 0.4,-0.68zm0.09 -1.66c-0.01,-0.47 -0.13,-0.84 -0.36,-1.08 -0.24,-0.25 -0.52,-0.38 -0.85,-0.38 -0.36,0 -0.65,0.14 -0.89,0.4 -0.23,0.26 -0.34,0.61 -0.34,1.06l2.44 0z"/>
  <path id="2" class="fil2" d="M43.53 12.33l0 -8.55 1.63 0 0 3.08c0.51,-0.57 1.11,-0.86 1.8,-0.86 0.75,0 1.38,0.27 1.87,0.82 0.49,0.55 0.74,1.33 0.74,2.36 0,1.06 -0.25,1.88 -0.75,2.45 -0.51,0.57 -1.12,0.86 -1.84,0.86 -0.35,0 -0.7,-0.09 -1.05,-0.28 -0.34,-0.18 -0.64,-0.44 -0.89,-0.79l0 0.91 -1.51 0zm1.61 -3.22c0,0.65 0.1,1.12 0.3,1.43 0.29,0.44 0.66,0.66 1.14,0.66 0.36,0 0.67,-0.16 0.92,-0.47 0.26,-0.31 0.39,-0.8 0.39,-1.47 0,-0.71 -0.13,-1.22 -0.39,-1.53 -0.26,-0.32 -0.59,-0.48 -0.99,-0.48 -0.39,0 -0.72,0.16 -0.98,0.46 -0.26,0.31 -0.39,0.78 -0.39,1.4z"/>
  <path id="3" class="fil2" d="M58.61 12.33l-1.86 0 -0.74 -1.95 -3.43 0 -0.71 1.95 -1.84 0 3.32 -8.55 1.83 0 3.43 8.55zm-3.16 -3.39l-1.19 -3.17 -1.16 3.17 2.35 0z"/>
  <path id="4" class="fil2" d="M61.09 12.33l-1.64 0 0 -6.2 1.52 0 0 0.88c0.26,-0.41 0.49,-0.69 0.7,-0.82 0.21,-0.13 0.45,-0.19 0.71,-0.19 0.38,0 0.74,0.1 1.08,0.31l-0.51 1.43c-0.27,-0.18 -0.53,-0.27 -0.77,-0.27 -0.23,0 -0.42,0.06 -0.58,0.19 -0.16,0.13 -0.29,0.35 -0.38,0.68 -0.09,0.33 -0.13,1.03 -0.13,2.08l0 1.91z"/>
  <path id="5" class="fil2" d="M71.89 12.33l-1.87 0 -0.74 -1.95 -3.43 0 -0.71 1.95 -1.83 0 3.32 -8.55 1.83 0 3.43 8.55zm-3.17 -3.39l-1.19 -3.17 -1.15 3.17 2.34 0z"/>
  <path id="6" class="fil2" d="M74.36 12.33l-1.64 0 0 -6.2 1.52 0 0 0.88c0.26,-0.41 0.5,-0.69 0.71,-0.82 0.2,-0.13 0.44,-0.19 0.71,-0.19 0.37,0 0.73,0.1 1.08,0.31l-0.51 1.43c-0.28,-0.18 -0.53,-0.27 -0.77,-0.27 -0.23,0 -0.43,0.06 -0.59,0.19 -0.16,0.13 -0.28,0.35 -0.37,0.68 -0.09,0.33 -0.14,1.03 -0.14,2.08l0 1.91z"/>
  <rect class="fil0 str0" x="0.17" y="20.58" width="257.11" height="137.29"/>
  <g id="_2967562902576">
   <rect class="fil0 str0" x="27.84" y="96.64" width="45.02" height="37.79" rx="1.18" ry="0.41"/>
   <rect class="fil3" x="35.53" y="119.13" width="5.19" height="1.79"/>
   <rect class="fil3" x="35.53" y="122.43" width="13.58" height="1.79"/>
   <rect class="fil3" x="35.53" y="125.35" width="11.08" height="1.79"/>
   <rect class="fil3" x="59.22" y="125.35" width="6.79" height="1.79"/>
   <rect class="fil3" x="49.66" y="122.43" width="15.1" height="1.79"/>
   <rect class="fil3" x="41.3" y="119.13" width="13.11" height="1.79"/>
   <rect class="fil3" x="54.92" y="119.13" width="11.71" height="1.79"/>
   <rect class="fil3" x="47.27" y="125.35" width="11.43" height="1.79"/>
   <rect class="fil3" x="35.53" y="105.63" width="5.19" height="1.79"/>
   <rect class="fil3" x="35.53" y="108.93" width="13.58" height="1.79"/>
   <rect class="fil3" x="35.53" y="111.84" width="11.08" height="1.79"/>
   <rect class="fil3" x="59.22" y="111.84" width="6.79" height="1.79"/>
   <rect class="fil3" x="49.66" y="108.93" width="15.1" height="1.79"/>
   <rect class="fil3" x="41.3" y="105.63" width="13.11" height="1.79"/>
   <rect class="fil3" x="54.92" y="105.63" width="11.71" height="1.79"/>
   <rect class="fil3" x="47.27" y="111.84" width="11.43" height="1.79"/>
  </g>
  <rect class="fil0 str0" x="106.38" y="96.64" width="45.02" height="37.79" rx="1.18" ry="0.41"/>
  <g id="_2967562899552">
   <rect class="fil0 str0" x="184.93" y="96.64" width="45.02" height="37.79" rx="1.18" ry="0.41"/>
   <rect class="fil3" x="192.61" y="119.13" width="5.19" height="1.79"/>
   <rect class="fil3" x="192.61" y="122.43" width="13.58" height="1.79"/>
   <rect class="fil3" x="192.61" y="125.35" width="11.08" height="1.79"/>
   <rect class="fil3" x="216.3" y="125.35" width="6.79" height="1.79"/>
   <rect class="fil3" x="206.74" y="122.43" width="15.1" height="1.79"/>
   <rect class="fil3" x="198.39" y="119.13" width="13.11" height="1.79"/>
   <rect class="fil3" x="212.01" y="119.13" width="11.71" height="1.79"/>
   <rect class="fil3" x="204.36" y="125.35" width="11.43" height="1.79"/>
   <rect class="fil3" x="192.61" y="105.63" width="5.19" height="1.79"/>
   <rect class="fil3" x="192.61" y="108.93" width="13.58" height="1.79"/>
   <rect class="fil3" x="192.61" y="111.84" width="11.08" height="1.79"/>
   <rect class="fil3" x="216.3" y="111.84" width="6.79" height="1.79"/>
   <rect class="fil3" x="206.74" y="108.93" width="15.1" height="1.79"/>
   <rect class="fil3" x="198.39" y="105.63" width="13.11" height="1.79"/>
   <rect class="fil3" x="212.01" y="105.63" width="11.71" height="1.79"/>
   <rect class="fil3" x="204.36" y="111.84" width="11.43" height="1.79"/>
  </g>
  <rect class="fil4 str0" x="48.24" y="28.78" width="158.3" height="100.96" rx="4.13" ry="1.1"/>
  <rect class="fil4 str0" x="84.07" y="34.16" width="114.59" height="70.61"/>
  <rect class="fil0 str0" x="80.63" y="111.4" width="118.03" height="7.73"/>
  <rect class="fil0 str0" x="52.52" y="34.16" width="27.21" height="70.61"/>
  <rect class="fil0 str0" x="175.98" y="122.01" width="16.46" height="5.15"/>
  <rect class="fil3" x="89.5" y="40.94" width="42.78" height="2.47"/>
  <rect class="fil3" x="89.5" y="52.97" width="47.01" height="2.47"/>
  <rect class="fil3" x="89.5" y="65.01" width="35.72" height="2.47"/>
  <rect class="fil3" x="89.5" y="77.05" width="56.87" height="2.47"/>
  <rect class="fil3" x="89.5" y="71.03" width="47.23" height="2.47"/>
  <rect class="fil3" x="89.5" y="89.09" width="42.78" height="2.47"/>
  <rect class="fil3" x="89.5" y="83.07" width="39.4" height="2.47"/>
  <rect class="fil3" x="89.5" y="58.99" width="56.34" height="2.47"/>
  <rect class="fil3" x="89.5" y="46.96" width="53.95" height="2.47"/>
  <rect class="fil3" x="55.23" y="36.79" width="15.57" height="2.47"/>
  <rect class="fil3" x="55.23" y="48.85" width="17.11" height="2.47"/>
  <rect class="fil3" x="55.23" y="60.9" width="13" height="2.47"/>
  <rect class="fil3" x="55.23" y="72.96" width="20.69" height="2.47"/>
  <rect class="fil3" x="55.23" y="66.93" width="17.19" height="2.47"/>
  <rect class="fil3" x="55.23" y="85.01" width="15.57" height="2.47"/>
  <rect class="fil3" x="55.23" y="78.99" width="14.34" height="2.47"/>
  <rect class="fil3" x="55.23" y="54.88" width="20.5" height="2.47"/>
  <rect class="fil3" x="55.23" y="42.82" width="19.63" height="2.47"/>
  <rect class="fil3" x="55.23" y="91.04" width="20.69" height="2.47"/>
  <rect class="fil3" x="55.23" y="97.07" width="14.34" height="2.47"/>
  <polygon class="fil5 str2" points="192.7,54.82 195.1,54 188.55,45.62 188.55,56.25 190.94,55.43 192.55,60.09 194.31,59.49 "/>
 </g>
</svg>
