<?xml version="1.0" encoding="UTF-8"?>
<!DOCTYPE svg PUBLIC "-//W3C//DTD SVG 1.1//EN" "http://www.w3.org/Graphics/SVG/1.1/DTD/svg11.dtd">
<!-- Creator: CorelDRAW 2020 (64-Bit) -->
<svg xmlns="http://www.w3.org/2000/svg" xml:space="preserve" width="1796px" height="1232px" version="1.1" style="shape-rendering:geometricPrecision; text-rendering:geometricPrecision; image-rendering:optimizeQuality; fill-rule:evenodd; clip-rule:evenodd"
viewBox="0 0 260.42 178.68"
 xmlns:xlink="http://www.w3.org/1999/xlink"
 xmlns:xodm="http://www.corel.com/coreldraw/odm/2003">
 <defs>
  <style type="text/css">
   <![CDATA[
    .str1 {stroke:#332C2B;stroke-width:0.34;stroke-miterlimit:22.9256}
    .str0 {stroke:black;stroke-width:0.34;stroke-miterlimit:22.9256}
    .str2 {stroke:black;stroke-width:0.17;stroke-miterlimit:22.9256}
    .fil0 {fill:none}
    .fil3 {fill:#B3B3B3}
    .fil1 {fill:#E6E6E6}
    .fil5 {fill:yellow}
    .fil4 {fill:white}
    .fil2 {fill:black;fill-rule:nonzero}
   ]]>
  </style>
 </defs>
 <g id="图层_x0020_1">
  <metadata id="CorelCorpID_0Corel-Layer"/>
  <rect class="fil0 str0" x="0.17" y="0.17" width="260.08" height="178.34" rx="2.72" ry="2.88"/>
  <path class="fil1 str1" d="M0.17 16.03l260.08 0 0 -13.14c0,-1.5 -1.22,-2.72 -2.72,-2.72l-254.64 0c-1.5,0 -2.72,1.22 -2.72,2.72l0 13.14z"/>
  <polygon class="fil2" points="27.39,12.47 25.36,3.82 27.16,3.82 28.45,9.77 30.03,3.82 32.11,3.82 33.62,9.87 34.94,3.82 36.69,3.82 34.61,12.47 32.74,12.47 31.03,6.01 29.32,12.47 "/>
  <path id="1" class="fil2" d="M41.01 10.49l1.65 0.28c-0.21,0.61 -0.55,1.07 -1,1.39 -0.46,0.31 -1.04,0.47 -1.72,0.47 -1.09,0 -1.9,-0.36 -2.42,-1.07 -0.41,-0.57 -0.62,-1.29 -0.62,-2.16 0,-1.04 0.27,-1.86 0.81,-2.45 0.54,-0.59 1.23,-0.88 2.06,-0.88 0.93,0 1.66,0.31 2.2,0.92 0.54,0.62 0.8,1.56 0.78,2.84l-4.15 0c0.01,0.49 0.15,0.87 0.4,1.15 0.26,0.27 0.57,0.41 0.95,0.41 0.26,0 0.48,-0.07 0.66,-0.22 0.17,-0.14 0.31,-0.36 0.4,-0.68zm0.09 -1.68c-0.01,-0.48 -0.13,-0.85 -0.37,-1.09 -0.23,-0.26 -0.52,-0.38 -0.86,-0.38 -0.36,0 -0.66,0.13 -0.89,0.4 -0.24,0.26 -0.35,0.62 -0.35,1.07l2.47 0z"/>
  <path id="2" class="fil2" d="M44.03 12.47l0 -8.65 1.65 0 0 3.12c0.52,-0.58 1.12,-0.87 1.82,-0.87 0.76,0 1.39,0.28 1.89,0.83 0.5,0.55 0.75,1.35 0.75,2.39 0,1.07 -0.25,1.89 -0.76,2.47 -0.51,0.58 -1.13,0.87 -1.86,0.87 -0.36,0 -0.71,-0.09 -1.06,-0.28 -0.35,-0.18 -0.65,-0.45 -0.9,-0.8l0 0.92 -1.53 0zm1.63 -3.25c0,0.65 0.1,1.13 0.31,1.44 0.29,0.44 0.67,0.67 1.14,0.67 0.37,0 0.68,-0.16 0.94,-0.48 0.26,-0.31 0.39,-0.8 0.39,-1.48 0,-0.72 -0.13,-1.24 -0.39,-1.55 -0.26,-0.32 -0.59,-0.48 -1,-0.48 -0.4,0 -0.73,0.15 -0.99,0.46 -0.27,0.31 -0.4,0.79 -0.4,1.42z"/>
  <path id="3" class="fil2" d="M59.29 12.47l-1.89 0 -0.75 -1.97 -3.47 0 -0.72 1.97 -1.85 0 3.36 -8.65 1.85 0 3.47 8.65zm-3.2 -3.43l-1.21 -3.2 -1.17 3.2 2.38 0z"/>
  <path id="4" class="fil2" d="M61.79 12.47l-1.66 0 0 -6.27 1.54 0 0 0.89c0.26,-0.42 0.5,-0.69 0.71,-0.82 0.21,-0.14 0.45,-0.2 0.72,-0.2 0.38,0 0.74,0.1 1.09,0.31l-0.51 1.45c-0.28,-0.18 -0.54,-0.27 -0.78,-0.27 -0.23,0 -0.43,0.06 -0.59,0.19 -0.16,0.13 -0.29,0.36 -0.38,0.69 -0.09,0.33 -0.14,1.04 -0.14,2.1l0 1.93z"/>
  <path id="5" class="fil2" d="M72.71 12.47l-1.88 0 -0.75 -1.97 -3.47 0 -0.72 1.97 -1.85 0 3.36 -8.65 1.85 0 3.46 8.65zm-3.2 -3.43l-1.2 -3.2 -1.17 3.2 2.37 0z"/>
  <path id="6" class="fil2" d="M75.22 12.47l-1.66 0 0 -6.27 1.54 0 0 0.89c0.26,-0.42 0.5,-0.69 0.71,-0.82 0.21,-0.14 0.45,-0.2 0.72,-0.2 0.38,0 0.74,0.1 1.09,0.31l-0.51 1.45c-0.28,-0.18 -0.54,-0.27 -0.78,-0.27 -0.23,0 -0.43,0.06 -0.59,0.19 -0.16,0.13 -0.29,0.36 -0.38,0.69 -0.1,0.33 -0.14,1.04 -0.14,2.1l0 1.93z"/>
  <rect class="fil0 str0" x="0.17" y="20.81" width="260.08" height="138.87"/>
  <g id="_2967562903344">
   <rect class="fil0 str0" x="28.16" y="97.76" width="45.54" height="38.22" rx="1.19" ry="0.42"/>
   <rect class="fil3" x="35.94" y="120.51" width="5.25" height="1.81"/>
   <rect class="fil3" x="35.94" y="123.85" width="13.74" height="1.81"/>
   <rect class="fil3" x="35.94" y="126.79" width="11.21" height="1.81"/>
   <rect class="fil3" x="59.9" y="126.79" width="6.87" height="1.81"/>
   <rect class="fil3" x="50.23" y="123.85" width="15.28" height="1.81"/>
   <rect class="fil3" x="41.78" y="120.51" width="13.26" height="1.81"/>
   <rect class="fil3" x="55.56" y="120.51" width="11.84" height="1.81"/>
   <rect class="fil3" x="47.82" y="126.79" width="11.57" height="1.81"/>
   <rect class="fil3" x="35.94" y="106.85" width="5.25" height="1.81"/>
   <rect class="fil3" x="35.94" y="110.19" width="13.74" height="1.81"/>
   <rect class="fil3" x="35.94" y="113.14" width="11.21" height="1.81"/>
   <rect class="fil3" x="59.9" y="113.14" width="6.87" height="1.81"/>
   <rect class="fil3" x="50.23" y="110.19" width="15.28" height="1.81"/>
   <rect class="fil3" x="41.78" y="106.85" width="13.26" height="1.81"/>
   <rect class="fil3" x="55.56" y="106.85" width="11.84" height="1.81"/>
   <rect class="fil3" x="47.82" y="113.14" width="11.57" height="1.81"/>
  </g>
  <rect class="fil0 str0" x="107.61" y="97.76" width="45.54" height="38.22" rx="1.19" ry="0.42"/>
  <g id="_2967562900944">
   <rect class="fil0 str0" x="187.06" y="97.76" width="45.54" height="38.22" rx="1.19" ry="0.42"/>
   <rect class="fil3" x="194.84" y="120.51" width="5.25" height="1.81"/>
   <rect class="fil3" x="194.84" y="123.85" width="13.74" height="1.81"/>
   <rect class="fil3" x="194.84" y="126.79" width="11.21" height="1.81"/>
   <rect class="fil3" x="218.8" y="126.79" width="6.87" height="1.81"/>
   <rect class="fil3" x="209.13" y="123.85" width="15.28" height="1.81"/>
   <rect class="fil3" x="200.68" y="120.51" width="13.26" height="1.81"/>
   <rect class="fil3" x="214.46" y="120.51" width="11.84" height="1.81"/>
   <rect class="fil3" x="206.72" y="126.79" width="11.57" height="1.81"/>
   <rect class="fil3" x="194.84" y="106.85" width="5.25" height="1.81"/>
   <rect class="fil3" x="194.84" y="110.19" width="13.74" height="1.81"/>
   <rect class="fil3" x="194.84" y="113.14" width="11.21" height="1.81"/>
   <rect class="fil3" x="218.8" y="113.14" width="6.87" height="1.81"/>
   <rect class="fil3" x="209.13" y="110.19" width="15.28" height="1.81"/>
   <rect class="fil3" x="200.68" y="106.85" width="13.26" height="1.81"/>
   <rect class="fil3" x="214.46" y="106.85" width="11.84" height="1.81"/>
   <rect class="fil3" x="206.72" y="113.14" width="11.57" height="1.81"/>
  </g>
  <rect class="fil4 str0" x="48.8" y="29.12" width="160.12" height="102.12" rx="4.18" ry="1.12"/>
  <rect class="fil4 str0" x="85.04" y="34.55" width="115.91" height="71.42"/>
  <rect class="fil0 str0" x="81.56" y="112.69" width="119.39" height="7.82"/>
  <rect class="fil0 str0" x="53.13" y="34.55" width="27.52" height="71.42"/>
  <rect class="fil0 str0" x="178.01" y="123.42" width="16.65" height="5.21"/>
  <rect class="fil3" x="90.53" y="41.41" width="43.27" height="2.5"/>
  <rect class="fil3" x="90.53" y="53.59" width="47.55" height="2.5"/>
  <rect class="fil3" x="90.53" y="65.76" width="36.13" height="2.5"/>
  <rect class="fil3" x="90.53" y="77.94" width="57.52" height="2.5"/>
  <rect class="fil3" x="90.53" y="71.85" width="47.78" height="2.5"/>
  <rect class="fil3" x="90.53" y="90.12" width="43.27" height="2.5"/>
  <rect class="fil3" x="90.53" y="84.03" width="39.85" height="2.5"/>
  <rect class="fil3" x="90.53" y="59.67" width="56.99" height="2.5"/>
  <rect class="fil3" x="90.53" y="47.5" width="54.58" height="2.5"/>
  <rect class="fil3" x="55.87" y="37.22" width="15.75" height="2.5"/>
  <rect class="fil3" x="55.87" y="49.41" width="17.3" height="2.5"/>
  <rect class="fil3" x="55.87" y="61.61" width="13.15" height="2.5"/>
  <rect class="fil3" x="55.87" y="73.8" width="20.93" height="2.5"/>
  <rect class="fil3" x="55.87" y="67.7" width="17.39" height="2.5"/>
  <rect class="fil3" x="55.87" y="85.99" width="15.75" height="2.5"/>
  <rect class="fil3" x="55.87" y="79.9" width="14.5" height="2.5"/>
  <rect class="fil3" x="55.87" y="55.51" width="20.74" height="2.5"/>
  <rect class="fil3" x="55.87" y="43.31" width="19.86" height="2.5"/>
  <rect class="fil3" x="55.87" y="92.09" width="20.93" height="2.5"/>
  <rect class="fil3" x="55.87" y="98.19" width="14.5" height="2.5"/>
  <polygon class="fil5 str2" points="146.58,89.11 149,88.28 142.38,79.8 142.38,90.56 144.8,89.73 146.43,94.45 148.21,93.84 "/>
 </g>
</svg>
