<?xml version="1.0" encoding="UTF-8"?>
<!DOCTYPE svg PUBLIC "-//W3C//DTD SVG 1.1//EN" "http://www.w3.org/Graphics/SVG/1.1/DTD/svg11.dtd">
<!-- Creator: CorelDRAW 2020 (64-Bit) -->
<svg xmlns="http://www.w3.org/2000/svg" xml:space="preserve" width="1796px" height="1232px" version="1.1" style="shape-rendering:geometricPrecision; text-rendering:geometricPrecision; image-rendering:optimizeQuality; fill-rule:evenodd; clip-rule:evenodd"
viewBox="0 0 258.8 177.57"
 xmlns:xlink="http://www.w3.org/1999/xlink"
 xmlns:xodm="http://www.corel.com/coreldraw/odm/2003">
 <defs>
  <style type="text/css">
   <![CDATA[
    .str1 {stroke:#332C2B;stroke-width:0.34;stroke-miterlimit:22.9256}
    .str0 {stroke:black;stroke-width:0.34;stroke-miterlimit:22.9256}
    .str2 {stroke:black;stroke-width:0.17;stroke-miterlimit:22.9256}
    .fil0 {fill:none}
    .fil3 {fill:#B3B3B3}
    .fil1 {fill:#E6E6E6}
    .fil5 {fill:yellow}
    .fil4 {fill:white}
    .fil2 {fill:black;fill-rule:nonzero}
   ]]>
  </style>
 </defs>
 <g id="图层_x0020_1">
  <metadata id="CorelCorpID_0Corel-Layer"/>
  <rect class="fil0 str0" x="0.17" y="0.17" width="258.46" height="177.23" rx="2.7" ry="2.86"/>
  <path class="fil1 str1" d="M0.17 15.93l258.46 0 0 -13.06c0,-1.48 -1.21,-2.7 -2.7,-2.7l-253.06 0c-1.48,0 -2.7,1.22 -2.7,2.7l0 13.06z"/>
  <polygon class="fil2" points="27.22,12.4 25.2,3.8 26.99,3.8 28.27,9.7 29.84,3.8 31.91,3.8 33.41,9.8 34.72,3.8 36.47,3.8 34.39,12.4 32.54,12.4 30.84,5.97 29.13,12.4 "/>
  <path id="1" class="fil2" d="M40.75 10.43l1.65 0.27c-0.21,0.61 -0.55,1.06 -1,1.38 -0.46,0.31 -1.03,0.47 -1.71,0.47 -1.08,0 -1.89,-0.35 -2.41,-1.06 -0.41,-0.57 -0.61,-1.29 -0.61,-2.15 0,-1.03 0.27,-1.85 0.81,-2.43 0.54,-0.59 1.22,-0.88 2.04,-0.88 0.93,0 1.66,0.31 2.19,0.92 0.54,0.61 0.79,1.55 0.77,2.82l-4.12 0c0.01,0.48 0.15,0.87 0.4,1.14 0.25,0.27 0.57,0.41 0.94,0.41 0.26,0 0.48,-0.07 0.65,-0.21 0.18,-0.14 0.31,-0.37 0.4,-0.68zm0.1 -1.67c-0.01,-0.48 -0.14,-0.84 -0.37,-1.09 -0.24,-0.25 -0.52,-0.38 -0.86,-0.38 -0.35,0 -0.65,0.14 -0.88,0.4 -0.24,0.26 -0.35,0.62 -0.35,1.07l2.46 0z"/>
  <path id="2" class="fil2" d="M43.75 12.4l0 -8.6 1.65 0 0 3.1c0.51,-0.58 1.11,-0.87 1.81,-0.87 0.75,0 1.38,0.28 1.88,0.83 0.49,0.55 0.74,1.34 0.74,2.37 0,1.06 -0.25,1.88 -0.76,2.46 -0.5,0.57 -1.12,0.86 -1.84,0.86 -0.36,0 -0.71,-0.09 -1.06,-0.27 -0.34,-0.19 -0.64,-0.45 -0.89,-0.8l0 0.92 -1.53 0zm1.63 -3.24c0,0.65 0.1,1.13 0.3,1.44 0.29,0.44 0.67,0.66 1.14,0.66 0.37,0 0.68,-0.16 0.93,-0.47 0.26,-0.32 0.39,-0.81 0.39,-1.48 0,-0.71 -0.13,-1.23 -0.39,-1.54 -0.26,-0.32 -0.59,-0.48 -0.99,-0.48 -0.4,0 -0.73,0.16 -0.99,0.47 -0.26,0.3 -0.39,0.77 -0.39,1.4z"/>
  <path id="3" class="fil2" d="M58.92 12.4l-1.88 0 -0.74 -1.96 -3.45 0 -0.71 1.96 -1.84 0 3.34 -8.6 1.83 0 3.45 8.6zm-3.18 -3.41l-1.2 -3.19 -1.16 3.19 2.36 0z"/>
  <path id="4" class="fil2" d="M61.41 12.4l-1.65 0 0 -6.24 1.53 0 0 0.89c0.26,-0.42 0.49,-0.69 0.7,-0.82 0.21,-0.13 0.45,-0.2 0.72,-0.2 0.38,0 0.74,0.11 1.09,0.31l-0.51 1.44c-0.28,-0.18 -0.54,-0.27 -0.78,-0.27 -0.23,0 -0.43,0.06 -0.59,0.19 -0.16,0.13 -0.28,0.36 -0.38,0.69 -0.09,0.33 -0.13,1.03 -0.13,2.08l0 1.93z"/>
  <path id="5" class="fil2" d="M72.26 12.4l-1.87 0 -0.74 -1.96 -3.45 0 -0.72 1.96 -1.84 0 3.34 -8.6 1.84 0 3.44 8.6zm-3.18 -3.41l-1.19 -3.19 -1.16 3.19 2.35 0z"/>
  <path id="6" class="fil2" d="M74.75 12.4l-1.64 0 0 -6.24 1.52 0 0 0.89c0.26,-0.42 0.5,-0.69 0.71,-0.82 0.21,-0.13 0.45,-0.2 0.71,-0.2 0.38,0 0.74,0.11 1.09,0.31l-0.51 1.44c-0.28,-0.18 -0.54,-0.27 -0.77,-0.27 -0.24,0 -0.43,0.06 -0.59,0.19 -0.16,0.13 -0.29,0.36 -0.38,0.69 -0.09,0.33 -0.14,1.03 -0.14,2.08l0 1.93z"/>
  <rect class="fil0 str0" x="0.17" y="20.68" width="258.46" height="138.01"/>
  <g id="_2967557178864">
   <rect class="fil0 str0" x="27.99" y="97.15" width="45.25" height="37.98" rx="1.18" ry="0.42"/>
   <rect class="fil3" x="35.71" y="119.76" width="5.22" height="1.8"/>
   <rect class="fil3" x="35.71" y="123.08" width="13.65" height="1.8"/>
   <rect class="fil3" x="35.71" y="126" width="11.14" height="1.8"/>
   <rect class="fil3" x="59.53" y="126" width="6.83" height="1.8"/>
   <rect class="fil3" x="49.92" y="123.08" width="15.18" height="1.8"/>
   <rect class="fil3" x="41.52" y="119.76" width="13.18" height="1.8"/>
   <rect class="fil3" x="55.21" y="119.76" width="11.77" height="1.8"/>
   <rect class="fil3" x="47.52" y="126" width="11.49" height="1.8"/>
   <rect class="fil3" x="35.71" y="106.18" width="5.22" height="1.8"/>
   <rect class="fil3" x="35.71" y="109.51" width="13.65" height="1.8"/>
   <rect class="fil3" x="35.71" y="112.43" width="11.14" height="1.8"/>
   <rect class="fil3" x="59.53" y="112.43" width="6.83" height="1.8"/>
   <rect class="fil3" x="49.92" y="109.51" width="15.18" height="1.8"/>
   <rect class="fil3" x="41.52" y="106.18" width="13.18" height="1.8"/>
   <rect class="fil3" x="55.21" y="106.18" width="11.77" height="1.8"/>
   <rect class="fil3" x="47.52" y="112.43" width="11.49" height="1.8"/>
  </g>
  <rect class="fil0 str0" x="106.94" y="97.15" width="45.25" height="37.98" rx="1.18" ry="0.42"/>
  <g id="_2967557175408">
   <rect class="fil0 str0" x="185.9" y="97.15" width="45.25" height="37.98" rx="1.18" ry="0.42"/>
   <rect class="fil3" x="193.63" y="119.76" width="5.22" height="1.8"/>
   <rect class="fil3" x="193.63" y="123.08" width="13.65" height="1.8"/>
   <rect class="fil3" x="193.63" y="126" width="11.14" height="1.8"/>
   <rect class="fil3" x="217.44" y="126" width="6.83" height="1.8"/>
   <rect class="fil3" x="207.83" y="123.08" width="15.18" height="1.8"/>
   <rect class="fil3" x="199.43" y="119.76" width="13.18" height="1.8"/>
   <rect class="fil3" x="213.12" y="119.76" width="11.77" height="1.8"/>
   <rect class="fil3" x="205.43" y="126" width="11.49" height="1.8"/>
   <rect class="fil3" x="193.63" y="106.18" width="5.22" height="1.8"/>
   <rect class="fil3" x="193.63" y="109.51" width="13.65" height="1.8"/>
   <rect class="fil3" x="193.63" y="112.43" width="11.14" height="1.8"/>
   <rect class="fil3" x="217.44" y="112.43" width="6.83" height="1.8"/>
   <rect class="fil3" x="207.83" y="109.51" width="15.18" height="1.8"/>
   <rect class="fil3" x="199.43" y="106.18" width="13.18" height="1.8"/>
   <rect class="fil3" x="213.12" y="106.18" width="11.77" height="1.8"/>
   <rect class="fil3" x="205.43" y="112.43" width="11.49" height="1.8"/>
  </g>
  <rect class="fil4 str0" x="48.49" y="28.93" width="159.13" height="101.49" rx="4.16" ry="1.11"/>
  <rect class="fil4 str0" x="84.51" y="34.34" width="115.19" height="70.98"/>
  <rect class="fil0 str0" x="81.05" y="111.99" width="118.65" height="7.77"/>
  <rect class="fil0 str0" x="52.8" y="34.34" width="27.35" height="70.98"/>
  <rect class="fil0 str0" x="176.91" y="122.65" width="16.55" height="5.18"/>
  <rect class="fil3" x="89.97" y="41.15" width="49.18" height="2.48"/>
  <rect class="fil3" x="89.97" y="53.25" width="47.26" height="2.48"/>
  <rect class="fil3" x="89.97" y="65.35" width="35.91" height="2.48"/>
  <rect class="fil3" x="89.97" y="77.46" width="67.76" height="2.48"/>
  <rect class="fil3" x="89.97" y="71.4" width="47.48" height="2.48"/>
  <rect class="fil3" x="89.97" y="89.56" width="43" height="2.48"/>
  <rect class="fil3" x="89.97" y="83.51" width="45.69" height="2.48"/>
  <rect class="fil3" x="89.97" y="59.3" width="56.64" height="2.48"/>
  <rect class="fil3" x="89.97" y="47.2" width="59.31" height="2.48"/>
  <rect class="fil3" x="55.52" y="36.99" width="15.65" height="2.48"/>
  <rect class="fil3" x="55.52" y="49.1" width="17.2" height="2.48"/>
  <rect class="fil3" x="55.52" y="61.22" width="13.07" height="2.48"/>
  <rect class="fil3" x="55.52" y="73.34" width="20.8" height="2.48"/>
  <rect class="fil3" x="55.52" y="67.28" width="17.28" height="2.48"/>
  <rect class="fil3" x="55.52" y="85.46" width="15.65" height="2.48"/>
  <rect class="fil3" x="55.52" y="79.4" width="14.41" height="2.48"/>
  <rect class="fil3" x="55.52" y="55.16" width="20.61" height="2.48"/>
  <rect class="fil3" x="55.52" y="43.05" width="19.74" height="2.48"/>
  <rect class="fil3" x="55.52" y="91.52" width="20.8" height="2.48"/>
  <rect class="fil3" x="55.52" y="97.58" width="14.41" height="2.48"/>
  <polygon class="fil5 str2" points="187.96,134.37 190.37,133.54 183.79,125.12 183.79,135.81 186.19,134.98 187.81,139.67 189.58,139.06 "/>
  <rect class="fil3" x="84.34" y="114.41" width="82.28" height="2.48"/>
 </g>
</svg>
