<?xml version="1.0" encoding="UTF-8"?>
<!DOCTYPE svg PUBLIC "-//W3C//DTD SVG 1.1//EN" "http://www.w3.org/Graphics/SVG/1.1/DTD/svg11.dtd">
<!-- Creator: CorelDRAW 2020 (64-Bit) -->
<svg xmlns="http://www.w3.org/2000/svg" xml:space="preserve" width="32px" height="32px" version="1.1" style="shape-rendering:geometricPrecision; text-rendering:geometricPrecision; image-rendering:optimizeQuality; fill-rule:evenodd; clip-rule:evenodd"
viewBox="0 0 17.74 17.74"
 xmlns:xlink="http://www.w3.org/1999/xlink"
 xmlns:xodm="http://www.corel.com/coreldraw/odm/2003">
 <defs>
  <style type="text/css">
   <![CDATA[
    .fil3 {fill:none}
    .fil2 {fill:#FF9933}
    .fil0 {fill:#FF9933;fill-rule:nonzero}
    .fil1 {fill:white;fill-rule:nonzero}
   ]]>
  </style>
 </defs>
 <g id="图层_x0020_1">
  <metadata id="CorelCorpID_0Corel-Layer"/>
  <g id="_1828943784000">
   <path class="fil0" d="M12.24 12.24l0.12 -2.32 0.04 -1.33c0,-0.24 0,-0.49 0,-0.74 0,-0.25 0,-0.57 0,-0.95 0.3,0.01 0.54,0.01 0.72,0.01 0.21,0 0.45,0 0.72,-0.01l-0.01 0.6c0.09,-0.15 0.18,-0.27 0.24,-0.34 0.06,-0.08 0.13,-0.14 0.21,-0.2 0.09,-0.07 0.17,-0.11 0.26,-0.14 0.09,-0.03 0.18,-0.04 0.28,-0.04 0.09,0 0.19,0.01 0.3,0.05 0,0.38 0.01,0.69 0.02,0.94l0.02 0.8c-0.13,-0.05 -0.27,-0.08 -0.39,-0.08 -0.15,0 -0.28,0.03 -0.39,0.09 -0.11,0.06 -0.21,0.15 -0.29,0.28 -0.08,0.12 -0.15,0.27 -0.2,0.46 -0.05,0.18 -0.09,0.47 -0.11,0.88 -0.02,0.4 -0.03,0.85 -0.03,1.37 0,0.18 0.01,0.41 0.02,0.67 -0.25,0 -0.5,-0.01 -0.74,-0.01 -0.25,0 -0.51,0.01 -0.79,0.01z"/>
   <path class="fil0" d="M9.14 12.24l0.12 -2.32 0.04 -1.33c0,-0.24 0.01,-0.49 0.01,-0.74 0,-0.25 -0.01,-0.57 -0.01,-0.95 0.3,0.01 0.54,0.01 0.72,0.01 0.21,0 0.45,0 0.72,-0.01l-0.01 0.6c0.1,-0.15 0.18,-0.27 0.24,-0.34 0.06,-0.08 0.14,-0.14 0.22,-0.2 0.08,-0.07 0.16,-0.11 0.25,-0.14 0.09,-0.03 0.18,-0.04 0.28,-0.04 0.09,0 0.19,0.01 0.3,0.05 0,0.38 0.01,0.69 0.02,0.94l0.03 0.8c-0.14,-0.05 -0.27,-0.08 -0.39,-0.08 -0.16,0 -0.29,0.03 -0.4,0.09 -0.1,0.06 -0.2,0.15 -0.29,0.28 -0.08,0.12 -0.15,0.27 -0.2,0.46 -0.05,0.18 -0.09,0.47 -0.11,0.88 -0.02,0.4 -0.03,0.85 -0.03,1.37 0,0.18 0.01,0.41 0.02,0.67 -0.25,0 -0.49,-0.01 -0.74,-0.01 -0.24,0 -0.51,0.01 -0.79,0.01z"/>
   <path class="fil0" d="M2.31 12.24l0.31 -0.75 1.96 -5.09 0.2 -0.57c0.06,-0.17 0.15,-0.41 0.26,-0.72 0.44,0 0.76,0.01 0.97,0.01 0.35,0 0.68,-0.01 0.98,-0.01l0.55 2.18 1.13 4.19 0.22 0.76c-0.44,0 -0.7,-0.01 -0.8,-0.01 -0.21,0 -0.52,0.01 -0.93,0.01 -0.11,-0.57 -0.27,-1.25 -0.48,-2.03l-1.9 0c-0.22,0.62 -0.45,1.29 -0.68,2.03 -0.47,0 -0.76,-0.01 -0.86,-0.01 -0.19,0 -0.5,0.01 -0.93,0.01z"/>
   <path class="fil1" d="M5.23 8.69l1.18 0c-0.3,-1.23 -0.46,-1.91 -0.48,-2.03 -0.17,0.51 -0.31,0.93 -0.43,1.26l-0.27 0.77z"/>
   <path class="fil2" d="M0.9 6.89c0,-0.67 -0.01,-1.33 -0.01,-2 -0.01,-0.63 0.05,-1.12 0.67,-1.12 0.66,0 1.73,0 2.4,0 0,-0.37 0,-0.33 0,-0.7 -0.89,0 -1.5,0 -2.39,0 -0.79,0 -1.41,0.52 -1.41,1.35 0,0.91 0,1.55 0,2.47 0.38,0 0.36,0 0.74,0z"/>
   <path class="fil2" d="M16.84 10.85c0,0.66 0.01,1.33 0.01,1.99 0,0.64 -0.05,1.13 -0.67,1.13 -0.66,0 -1.74,0 -2.4,0 0,0.37 0,0.33 0,0.7 0.89,0 1.5,0 2.39,0 0.79,0 1.41,-0.52 1.41,-1.35 0,-0.92 0,-1.56 0,-2.47 -0.38,0 -0.36,0 -0.74,0z"/>
   <path class="fil2" d="M16.84 6.89c0,-0.67 0.01,-1.33 0.01,-2 0,-0.63 -0.05,-1.12 -0.67,-1.12 -0.66,0 -1.74,0 -2.4,0 0,-0.37 0,-0.33 0,-0.7 0.89,0 1.5,0 2.39,0 0.79,0 1.41,0.52 1.41,1.35 0,0.91 0,1.55 0,2.47 -0.38,0 -0.36,0 -0.74,0z"/>
   <path class="fil2" d="M0.9 10.85c0,0.66 -0.01,1.33 -0.01,1.99 -0.01,0.64 0.05,1.13 0.67,1.13 0.66,0 1.73,0 2.4,0 0,0.37 0,0.33 0,0.7 -0.89,0 -1.5,0 -2.39,0 -0.79,0 -1.41,-0.52 -1.41,-1.35 0,-0.92 0,-1.56 0,-2.47 0.38,0 0.36,0 0.74,0z"/>
  </g>
  <rect class="fil3" width="17.74" height="17.74"/>
 </g>
</svg>
