<?xml version="1.0" encoding="UTF-8"?>
<!DOCTYPE svg PUBLIC "-//W3C//DTD SVG 1.1//EN" "http://www.w3.org/Graphics/SVG/1.1/DTD/svg11.dtd">
<!-- Creator: CorelDRAW 2020 (64-Bit) -->
<svg xmlns="http://www.w3.org/2000/svg" xml:space="preserve" width="32px" height="32px" version="1.1" style="shape-rendering:geometricPrecision; text-rendering:geometricPrecision; image-rendering:optimizeQuality; fill-rule:evenodd; clip-rule:evenodd"
viewBox="0 0 60.26 60.26"
 xmlns:xlink="http://www.w3.org/1999/xlink"
 xmlns:xodm="http://www.corel.com/coreldraw/odm/2003">
 <defs>
  <style type="text/css">
   <![CDATA[
    .fil0 {fill:none}
    .fil3 {fill:#337AB7}
    .fil1 {fill:#337AB7;fill-rule:nonzero}
    .fil2 {fill:white;fill-rule:nonzero}
   ]]>
  </style>
 </defs>
 <g id="图层_x0020_1">
  <metadata id="CorelCorpID_0Corel-Layer"/>
  <rect class="fil0" width="60.26" height="60.26"/>
  <g id="_2845401873808">
   <path class="fil1" d="M43.21 41.6l0.41 -7.89 0.13 -4.54c0.01,-0.81 0.01,-1.64 0.01,-2.5 0,-0.86 -0.01,-1.94 -0.03,-3.22 1.04,0.03 1.86,0.04 2.47,0.04 0.71,0 1.52,-0.01 2.45,-0.04l-0.06 2.03c0.34,-0.52 0.61,-0.9 0.83,-1.16 0.21,-0.25 0.45,-0.48 0.73,-0.69 0.28,-0.21 0.57,-0.36 0.86,-0.46 0.31,-0.1 0.62,-0.15 0.94,-0.15 0.31,0 0.66,0.06 1.03,0.18 0.01,1.29 0.03,2.35 0.07,3.19l0.09 2.74c-0.47,-0.2 -0.91,-0.29 -1.33,-0.29 -0.51,0 -0.95,0.1 -1.33,0.3 -0.37,0.21 -0.7,0.53 -0.99,0.95 -0.29,0.42 -0.52,0.94 -0.69,1.57 -0.17,0.62 -0.29,1.62 -0.36,2.98 -0.07,1.36 -0.1,2.92 -0.1,4.67 0,0.61 0.01,1.38 0.05,2.29 -0.83,-0.03 -1.67,-0.04 -2.51,-0.04 -0.83,0 -1.72,0.01 -2.67,0.04z"/>
   <path class="fil1" d="M31.76 41.6l0.41 -7.89 0.13 -4.54c0.01,-0.81 0.01,-1.64 0.01,-2.5 0,-0.86 -0.01,-1.94 -0.02,-3.22 1.03,0.03 1.85,0.04 2.46,0.04 0.71,0 1.53,-0.01 2.45,-0.04l-0.06 2.03c0.34,-0.52 0.62,-0.9 0.83,-1.16 0.22,-0.25 0.46,-0.48 0.73,-0.69 0.28,-0.21 0.57,-0.36 0.87,-0.46 0.3,-0.1 0.61,-0.15 0.94,-0.15 0.3,0 0.65,0.06 1.03,0.18 0.01,1.29 0.03,2.35 0.06,3.19l0.09 2.74c-0.47,-0.2 -0.91,-0.29 -1.32,-0.29 -0.52,0 -0.96,0.1 -1.33,0.3 -0.38,0.21 -0.71,0.53 -1,0.95 -0.28,0.42 -0.52,0.94 -0.69,1.57 -0.17,0.62 -0.29,1.62 -0.36,2.98 -0.07,1.36 -0.1,2.92 -0.1,4.67 0,0.61 0.02,1.38 0.05,2.29 -0.83,-0.03 -1.67,-0.04 -2.5,-0.04 -0.84,0 -1.73,0.01 -2.68,0.04z"/>
   <path class="fil1" d="M6.71 41.6l1.06 -2.56 6.63 -17.31 0.71 -1.93c0.21,-0.57 0.49,-1.39 0.86,-2.45 1.5,0.02 2.6,0.03 3.3,0.03 1.2,0 2.32,-0.01 3.35,-0.03l1.87 7.41 3.81 14.24 0.75 2.6c-1.48,-0.03 -2.38,-0.04 -2.7,-0.04 -0.72,0 -1.78,0.01 -3.17,0.04 -0.38,-1.96 -0.92,-4.26 -1.63,-6.91l-6.46 0c-0.74,2.09 -1.51,4.39 -2.3,6.91 -1.6,-0.03 -2.57,-0.04 -2.93,-0.04 -0.65,0 -1.7,0.01 -3.15,0.04z"/>
   <path class="fil2" d="M16.64 29.53l3.98 0c-0.99,-4.18 -1.53,-6.48 -1.63,-6.91 -0.56,1.74 -1.04,3.17 -1.43,4.28l-0.92 2.63z"/>
   <path class="fil3" d="M3.06 23.41c-0.02,-2.26 -0.03,-4.53 -0.05,-6.79 -0.01,-2.16 0.18,-3.81 2.28,-3.81 2.25,0 5.9,0 8.15,0 0.01,-1.26 0.01,-1.12 0.01,-2.38 -3.02,0 -5.11,0 -8.13,0 -2.67,0 -4.79,1.76 -4.79,4.57 0,3.11 0,5.3 0,8.41 1.3,0 1.22,0 2.53,0z"/>
   <path class="fil3" d="M57.2 36.85c0.02,2.26 0.03,4.53 0.05,6.79 0.01,2.16 -0.18,3.81 -2.28,3.81 -2.25,0 -5.9,0 -8.15,0 -0.01,1.25 -0.01,1.12 -0.01,2.38 3.02,0 5.11,0 8.13,0 2.67,0 4.79,-1.76 4.79,-4.58 0,-3.11 0,-5.29 0,-8.4 -1.3,0 -1.22,0 -2.53,0z"/>
   <path class="fil3" d="M57.2 23.41c0.02,-2.26 0.03,-4.53 0.05,-6.79 0.01,-2.16 -0.18,-3.81 -2.28,-3.81 -2.25,0 -5.9,0 -8.15,0 -0.01,-1.26 -0.01,-1.12 -0.01,-2.38 3.02,0 5.11,0 8.13,0 2.67,0 4.79,1.76 4.79,4.57 0,3.11 0,5.3 0,8.41 -1.3,0 -1.22,0 -2.53,0z"/>
   <path class="fil3" d="M3.06 36.85c-0.02,2.26 -0.03,4.53 -0.05,6.79 -0.01,2.16 0.18,3.81 2.28,3.81 2.25,0 5.9,0 8.15,0 0.01,1.25 0.01,1.12 0.01,2.38 -3.02,0 -5.11,0 -8.13,0 -2.67,0 -4.79,-1.76 -4.79,-4.58 0,-3.11 0,-5.29 0,-8.4 1.3,0 1.22,0 2.53,0z"/>
  </g>
 </g>
</svg>
