<?xml version="1.0" encoding="UTF-8"?>
<!DOCTYPE svg PUBLIC "-//W3C//DTD SVG 1.1//EN" "http://www.w3.org/Graphics/SVG/1.1/DTD/svg11.dtd">
<!-- Creator: CorelDRAW 2020 (64-Bit) -->
<svg xmlns="http://www.w3.org/2000/svg" xml:space="preserve" width="25.5925mm" height="17.0283mm" version="1.1" style="shape-rendering:geometricPrecision; text-rendering:geometricPrecision; image-rendering:optimizeQuality; fill-rule:evenodd; clip-rule:evenodd"
viewBox="0 0 1411.7 939.29"
 xmlns:xlink="http://www.w3.org/1999/xlink"
 xmlns:xodm="http://www.corel.com/coreldraw/odm/2003">
 <defs>
  <style type="text/css">
   <![CDATA[
    .fil2 {fill:#FF9933}
    .fil0 {fill:#FF9933;fill-rule:nonzero}
    .fil1 {fill:white;fill-rule:nonzero}
   ]]>
  </style>
 </defs>
 <g id="图层_x0020_1">
  <metadata id="CorelCorpID_0Corel-Layer"/>
  <path class="fil0" d="M979.09 743.1l9.71 -188.13 3.13 -108.08c0.21,-19.51 0.31,-39.3 0.31,-59.68 0,-20.66 -0.21,-46.24 -0.63,-76.72 24.65,0.57 44.28,0.87 58.69,0.87 17.03,0 36.45,-0.29 58.48,-0.87l-1.35 48.4c8.04,-12.43 14.62,-21.67 19.73,-27.74 5.12,-6.07 10.87,-11.56 17.44,-16.48 6.58,-4.91 13.47,-8.67 20.57,-10.98 7.2,-2.46 14.62,-3.61 22.45,-3.61 7.31,0 15.56,1.45 24.54,4.33 0.21,30.78 0.73,56.07 1.57,76.15l2.2 65.17c-11.28,-4.62 -21.83,-6.93 -31.65,-6.93 -12.32,0 -22.87,2.45 -31.74,7.37 -8.88,4.91 -16.81,12.42 -23.71,22.54 -6.78,9.97 -12.32,22.4 -16.39,37.42 -4.07,14.89 -6.99,38.58 -8.56,71.09 -1.67,32.37 -2.51,69.5 -2.51,111.26 0,14.74 0.42,32.95 1.26,54.62 -19.84,-0.58 -39.79,-0.87 -59.74,-0.87 -19.84,0 -41.14,0.29 -63.8,0.87z"/>
  <path class="fil0" d="M728.19 743.1l9.71 -188.13 3.13 -108.08c0.21,-19.51 0.31,-39.3 0.31,-59.68 0,-20.66 -0.21,-46.24 -0.63,-76.72 24.65,0.57 44.28,0.87 58.69,0.87 17.02,0 36.44,-0.29 58.48,-0.87l-1.36 48.4c8.04,-12.43 14.62,-21.67 19.74,-27.74 5.12,-6.07 10.86,-11.56 17.44,-16.48 6.58,-4.91 13.47,-8.67 20.57,-10.98 7.21,-2.46 14.62,-3.61 22.46,-3.61 7.31,0 15.56,1.45 24.54,4.33 0.21,30.78 0.73,56.07 1.57,76.15l2.2 65.17c-11.28,-4.62 -21.83,-6.93 -31.65,-6.93 -12.32,0 -22.87,2.45 -31.74,7.37 -8.88,4.91 -16.82,12.42 -23.71,22.54 -6.78,9.97 -12.32,22.4 -16.39,37.42 -4.08,14.89 -7,38.58 -8.57,71.09 -1.67,32.37 -2.5,69.5 -2.5,111.26 0,14.74 0.42,32.95 1.25,54.62 -19.84,-0.58 -39.79,-0.87 -59.73,-0.87 -19.84,0 -41.15,0.29 -63.81,0.87z"/>
  <path class="fil0" d="M174.68 743.1l25.38 -60.97 158.11 -412.67 16.81 -46.09c4.9,-13.58 11.69,-33.09 20.46,-58.52 35.93,0.58 62.14,0.87 78.64,0.87 28.72,0 55.35,-0.29 79.89,-0.87l44.59 176.72 90.97 339.7 17.75 61.84c-35.3,-0.58 -56.71,-0.87 -64.22,-0.87 -17.13,0 -42.4,0.29 -75.61,0.87 -8.99,-46.67 -21.93,-101.58 -38.95,-164.72l-154.04 0c-17.65,49.85 -35.93,104.76 -54.82,164.72 -38.01,-0.58 -61.31,-0.87 -69.87,-0.87 -15.56,0 -40.52,0.29 -75.08,0.87z"/>
  <path class="fil1" d="M411.42 455.27l95.03 0c-23.7,-99.55 -36.65,-154.46 -38.95,-164.58 -13.37,41.47 -24.75,75.43 -34.15,102.01l-21.93 62.56z"/>
  <path class="fil2" d="M60.31 309.41c-0.36,-53.97 -0.76,-107.99 -1.08,-161.92 -0.3,-51.43 4.14,-90.82 54.31,-90.82 53.77,0 140.64,0 194.41,0 0.06,-29.92 0.12,-26.74 0.18,-56.66 -71.95,0 -121.83,0 -193.77,0 -63.77,0 -114.36,41.93 -114.36,108.99 0,74.16 0,126.26 0,200.42 31.13,0 29.17,0 60.31,0z"/>
  <path class="fil2" d="M1351.39 629.88c0.36,53.97 0.76,107.99 1.08,161.92 0.3,51.43 -4.14,90.82 -54.31,90.82 -53.77,0 -140.64,0 -194.41,0 -0.06,29.92 -0.12,26.74 -0.18,56.66 71.95,0 121.83,0 193.77,0 63.77,0 114.36,-41.93 114.36,-108.99 0,-74.16 0,-126.26 0,-200.42 -31.13,0 -29.17,0 -60.31,0z"/>
  <path class="fil2" d="M1351.39 309.41c0.36,-53.97 0.76,-107.99 1.08,-161.92 0.3,-51.43 -4.14,-90.82 -54.31,-90.82 -53.77,0 -140.64,0 -194.41,0 -0.06,-29.92 -0.12,-26.74 -0.18,-56.66 71.95,0 121.83,0 193.77,0 63.77,0 114.36,41.93 114.36,108.99 0,74.16 0,126.26 0,200.42 -31.13,0 -29.17,0 -60.31,0z"/>
  <path class="fil2" d="M60.31 629.88c-0.36,53.97 -0.76,107.99 -1.08,161.92 -0.3,51.43 4.14,90.82 54.31,90.82 53.77,0 140.64,0 194.41,0 0.06,29.92 0.12,26.74 0.18,56.66 -71.95,0 -121.83,0 -193.77,0 -63.77,0 -114.36,-41.93 -114.36,-108.99 0,-74.16 0,-126.26 0,-200.42 31.13,0 29.17,0 60.31,0z"/>
 </g>
</svg>
